<?xml version="1.0" encoding="UTF-8"?>
<!-- Generated by Pixelmator Pro Trial 3.6.11 -->
<svg width="1198" height="1845" viewBox="0 0 1198 1845" xmlns="http://www.w3.org/2000/svg">
    <g id="blenderframe20">
        <g id="blenderobjectGPencil007">
            <g id="PlaneFills">
                <path id="Path" fill="#000000" stroke="none" d="M 10 922.869446 L 599.18988 1835.73877 L 1188.379639 922.869446 L 599.18988 10 Z"/>
            </g>
            <g id="Plane001Fills">
                <path id="path1" fill="#d9d9d9" stroke="none" d="M 73.360046 922.869446 L 599.18988 1726.298828 L 1125.019775 922.869446 L 599.18988 119.439941 Z"/>
            </g>
            <g id="Plane002Fills">
                <path id="path2" fill="#000000" stroke="none" d="M 599.18988 207.439819 L 931.938049 719.154419 L 931.312317 871.011902 L 855.304382 873.560913 L 769.101624 722.874878 L 768.774597 622.473022 L 722.654602 577.594482 L 722.654602 1268.144287 L 768.774597 1223.265747 L 769.101624 1122.864014 L 855.304382 972.177856 L 931.312317 974.726929 L 931.938049 1126.584351 L 599.18988 1638.29895 L 266.441711 1126.584351 L 267.067444 974.726929 L 343.075256 972.177856 L 429.278137 1122.864014 L 429.605164 1223.265747 L 475.725159 1268.144287 L 475.725159 577.594482 L 429.605164 622.473022 L 429.278137 722.874878 L 343.075256 873.560913 L 267.067444 871.011902 L 266.441711 719.154419 Z"/>
            </g>
            <g id="CircleLines">
                <path id="path3" fill="none" stroke="#fefefe" stroke-width="23" stroke-linecap="round" d="M 517.102722 681.031982 L 599.18988 633.638916 L 681.276917 681.031982 L 681.276917 775.818115 L 599.18988 823.211182 L 517.102722 775.818115 L 517.102722 681.031982"/>
                <path id="path4" fill="none" stroke="#fefefe" stroke-width="23" stroke-linecap="round" d="M 517.102722 872.407471 L 599.18988 825.014526 L 681.276917 872.407471 L 681.276917 967.193542 L 599.18988 1014.586609 L 517.102722 967.193542 L 517.102722 872.407471"/>
                <path id="path5" fill="none" stroke="#fefefe" stroke-width="23" stroke-linecap="round" d="M 517.102722 1063.782837 L 599.18988 1016.389954 L 681.276917 1063.782837 L 681.276917 1158.56897 L 599.18988 1205.962036 L 517.102722 1158.56897 L 517.102722 1063.782837"/>
            </g>
        </g>
    </g>
</svg>
