<?xml version="1.0" encoding="UTF-8"?>
<!-- Generated by Pixelmator Pro Trial 3.6.11 -->
<svg width="1956" height="1956" viewBox="0 0 1956 1956" xmlns="http://www.w3.org/2000/svg">
    <g id="blenderframe20">
        <g id="blenderobjectGPencil007">
            <path id="Circle" fill="#000000" fill-rule="evenodd" stroke="#fefefe" stroke-width="23" stroke-linecap="round" d="M 1922.00769 976.739868 C 1923.524048 454.28064 1501.216553 29.514526 978.757263 27.998169 C 456.298096 26.481812 31.531986 448.789307 30.015602 971.248535 C 28.49922 1493.707764 450.806793 1918.473877 973.265991 1919.990234 C 1495.72522 1921.506592 1920.491211 1499.198975 1922.00769 976.739868 Z"/>
            <g id="PlaneFills">
                <path id="Path" fill="#000000" stroke="none" d="M 387.014465 972.154175 L 973.552368 1886.729736 L 1565.38916 975.57428 L 978.851379 60.998657 Z"/>
            </g>
            <g id="Plane001Fills">
                <path id="path1" fill="#d9d9d9" stroke="none" d="M 450.374268 972.338074 L 973.869995 1777.290161 L 1502.029541 975.390381 L 978.533752 170.43811 Z"/>
            </g>
            <g id="Plane002Fills">
                <path id="path2" fill="#000000" stroke="none" d="M 978.27832 258.437622 L 1309.539917 771.115845 L 1308.473389 922.970825 L 1232.458374 925.299194 L 1146.693359 774.363647 L 1146.657715 673.961304 L 1100.668213 628.949097 L 1098.66394 1319.49585 L 1144.914063 1274.751465 L 1145.532471 1174.351074 L 1232.172241 1023.915771 L 1308.172363 1026.685425 L 1308.357422 1178.543945 L 974.125427 1689.290771 L 642.863831 1176.612549 L 643.930359 1024.757568 L 719.94519 1022.429077 L 805.710388 1173.364746 L 805.746033 1273.76709 L 851.735535 1318.779297 L 853.739807 628.2323 L 807.489746 672.976807 L 806.871338 773.377319 L 720.231445 923.8125 L 644.231323 921.042969 L 644.046387 769.184326 Z"/>
            </g>
            <g id="CircleLines">
                <path id="path3" fill="none" stroke="#fefefe" stroke-width="23" stroke-linecap="round" d="M 894.816956 731.789551 L 977.041321 684.634888 L 1058.990479 732.265991 L 1058.715332 827.051758 L 976.49115 874.206421 L 894.54187 826.575195 L 894.816956 731.789551"/>
                <path id="path4" fill="none" stroke="#fefefe" stroke-width="23" stroke-linecap="round" d="M 894.261536 923.164185 L 976.485901 876.009644 L 1058.435059 923.640747 L 1058.159912 1018.426392 L 975.935669 1065.581055 L 893.986389 1017.94989 L 894.261536 923.164185"/>
                <path id="path5" fill="none" stroke="#fefefe" stroke-width="23" stroke-linecap="round" d="M 893.706055 1114.538818 L 975.93042 1067.384277 L 1057.879639 1115.015259 L 1057.604492 1209.801025 L 975.380249 1256.955566 L 893.430969 1209.324463 L 893.706055 1114.538818"/>
            </g>
        </g>
    </g>
</svg>
