<svg version="1.1" id="Layer_1" xmlns="http://www.w3.org/2000/svg" xmlns:xlink="http://www.w3.org/1999/xlink" x="0px" y="0px"
	 width="100%" viewBox="0 0 240 400" enable-background="new 0 0 240 400" xml:space="preserve">
<path fill="#FEFEFE" opacity="1.000000" stroke="none" 
	d="
M241.000000,152.000000 
	C241.000000,235.333298 241.000000,318.166595 241.000000,400.999939 
	C161.000061,400.999939 81.000114,400.999939 1.000131,400.999969 
	C1.000087,267.666779 1.000087,134.333542 1.000044,1.000238 
	C80.999870,1.000159 160.999741,1.000159 240.999802,1.000079 
	C241.000000,51.166668 241.000000,101.333336 241.000000,152.000000 
M71.798157,33.124298 
	C70.870636,31.413750 69.943108,29.703199 68.080528,27.896700 
	C58.012264,27.912806 47.944004,27.928911 37.072701,28.074183 
	C36.725304,29.953362 36.076496,31.832216 36.074474,33.711765 
	C36.020180,84.189102 36.032890,134.666504 36.033039,185.143906 
	C36.033230,250.947754 36.017925,316.751648 36.106407,382.555359 
	C36.108891,384.398193 37.216034,386.239502 38.765755,388.172821 
	C91.277023,388.174713 143.788300,388.187408 196.299500,388.129242 
	C197.975021,388.127380 199.649734,387.398132 202.065338,387.030762 
	C208.281586,388.553345 208.987427,387.999847 208.997986,381.520721 
	C209.009094,374.706818 208.947220,367.892334 209.021973,361.079254 
	C209.060501,357.567963 208.153854,355.486511 204.063080,356.801666 
	C203.149719,357.095306 202.087555,356.926086 200.560974,356.720337 
	C200.406891,356.598969 200.252792,356.477570 199.759232,355.727783 
	C196.804581,355.907043 193.849930,356.086334 190.010269,356.489044 
	C186.040298,356.415009 182.070343,356.340942 177.908676,355.766663 
	C176.904419,355.933990 175.900177,356.101349 174.010956,356.493134 
	C170.040253,356.417755 166.069550,356.342407 161.973679,355.825867 
	C161.281479,355.971832 160.589264,356.117767 159.040466,356.484985 
	C156.393845,356.418579 153.747223,356.352203 150.726669,355.673309 
	C147.449020,355.870636 144.171356,356.067932 140.011581,356.549072 
	C116.448334,356.549072 92.885086,356.549072 68.886597,356.549072 
	C68.886597,354.667267 68.886543,353.200195 68.886597,351.733124 
	C68.888359,304.976318 68.888084,258.219543 68.903954,211.462738 
	C68.904343,210.309494 69.083923,209.156311 69.969383,207.984558 
	C70.979439,206.411865 72.852806,204.839020 72.852516,203.266495 
	C72.851151,195.820709 72.046455,188.373734 72.078766,180.929581 
	C72.122391,170.878281 72.993996,160.827362 72.938660,150.779419 
	C72.781693,122.276291 72.311623,93.774994 72.012779,65.272476 
	C71.902870,54.790337 71.927162,44.306797 71.798157,33.124298 
M171.500000,347.001801 
	C181.284409,347.001801 191.068817,347.001801 200.836166,347.001801 
	C200.836166,337.631683 200.836166,328.740387 200.836166,319.398743 
	C173.966507,319.398743 147.429123,319.398743 120.319992,319.398743 
	C121.497719,317.761383 122.219673,316.660583 123.036804,315.635712 
	C148.160187,284.124023 173.301605,252.626678 198.394989,221.091141 
	C199.487488,219.718185 200.849854,218.026779 200.899246,216.446625 
	C201.152466,208.343384 201.016449,200.227982 201.016449,191.631042 
	C194.356079,191.631042 188.212830,191.631042 181.100784,191.631042 
	C192.401749,184.309769 200.208069,175.565674 203.578186,163.361984 
	C209.789948,140.868210 200.797073,121.195961 179.920898,112.535835 
	C174.126495,110.132126 167.930969,108.642105 161.847580,106.999176 
	C148.386902,103.363884 134.819595,100.110085 121.420868,96.264870 
	C115.505783,94.567345 111.280312,90.667610 110.733383,83.897202 
	C110.169624,76.918427 112.689919,71.347038 118.750366,67.940102 
	C129.911636,61.665699 141.711227,61.890301 153.504303,65.829376 
	C163.411530,69.138550 168.029892,76.795074 169.056656,86.806450 
	C179.508636,86.806450 189.623886,86.806450 200.092590,86.806450 
	C199.468719,68.851494 192.310806,54.998268 176.795273,45.791031 
	C160.343979,36.028481 142.565292,34.733719 124.183136,37.516781 
	C110.579811,39.576321 98.776169,45.033970 90.020271,56.136955 
	C70.822723,80.480568 80.189072,114.173653 109.260231,124.373901 
	C117.071556,127.114670 125.257645,128.778427 133.249664,131.015289 
	C143.938751,134.007019 154.844543,136.438889 165.206543,140.315857 
	C173.245422,143.323639 175.613235,150.650620 173.088013,158.933487 
	C171.097275,165.463181 166.292770,169.032120 160.166168,171.026428 
	C150.615112,174.135452 140.820160,174.128723 131.038498,172.490173 
	C118.848282,170.448166 111.432518,163.384781 109.397797,151.000977 
	C109.243271,150.060440 108.975952,149.138443 108.787796,148.323578 
	C98.152641,148.323578 87.793068,148.323578 77.893730,148.323578 
	C77.160294,167.835266 86.835602,181.294418 103.756004,191.967697 
	C95.773338,191.967697 89.264267,191.967697 82.705894,191.967697 
	C82.705894,201.291351 82.705894,210.061111 82.705894,219.257431 
	C108.508110,219.257431 134.060349,219.257431 160.389282,219.257431 
	C158.940933,221.181702 158.009369,222.485016 157.011581,223.735489 
	C132.394592,254.586014 107.762222,285.424286 83.175072,316.298553 
	C82.071503,317.684326 80.642403,319.365967 80.595909,320.946014 
	C80.342590,329.554718 80.475433,338.174744 80.475433,347.001801 
	C110.854744,347.001801 140.677368,347.001801 171.500000,347.001801 
z"/>
<path fill="#020202" opacity="1.000000" stroke="none" 
	d="
M171.000000,347.001801 
	C140.677368,347.001801 110.854744,347.001801 80.475433,347.001801 
	C80.475433,338.174744 80.342590,329.554718 80.595909,320.946014 
	C80.642403,319.365967 82.071503,317.684326 83.175072,316.298553 
	C107.762222,285.424286 132.394592,254.586014 157.011581,223.735489 
	C158.009369,222.485016 158.940933,221.181702 160.389282,219.257431 
	C134.060349,219.257431 108.508110,219.257431 82.705894,219.257431 
	C82.705894,210.061111 82.705894,201.291351 82.705894,191.967697 
	C89.264267,191.967697 95.773338,191.967697 103.756004,191.967697 
	C86.835602,181.294418 77.160294,167.835266 77.893730,148.323578 
	C87.793068,148.323578 98.152641,148.323578 108.787796,148.323578 
	C108.975952,149.138443 109.243271,150.060440 109.397797,151.000977 
	C111.432518,163.384781 118.848282,170.448166 131.038498,172.490173 
	C140.820160,174.128723 150.615112,174.135452 160.166168,171.026428 
	C166.292770,169.032120 171.097275,165.463181 173.088013,158.933487 
	C175.613235,150.650620 173.245422,143.323639 165.206543,140.315857 
	C154.844543,136.438889 143.938751,134.007019 133.249664,131.015289 
	C125.257645,128.778427 117.071556,127.114670 109.260231,124.373901 
	C80.189072,114.173653 70.822723,80.480568 90.020271,56.136955 
	C98.776169,45.033970 110.579811,39.576321 124.183136,37.516781 
	C142.565292,34.733719 160.343979,36.028481 176.795273,45.791031 
	C192.310806,54.998268 199.468719,68.851494 200.092590,86.806450 
	C189.623886,86.806450 179.508636,86.806450 169.056656,86.806450 
	C168.029892,76.795074 163.411530,69.138550 153.504303,65.829376 
	C141.711227,61.890301 129.911636,61.665699 118.750366,67.940102 
	C112.689919,71.347038 110.169624,76.918427 110.733383,83.897202 
	C111.280312,90.667610 115.505783,94.567345 121.420868,96.264870 
	C134.819595,100.110085 148.386902,103.363884 161.847580,106.999176 
	C167.930969,108.642105 174.126495,110.132126 179.920898,112.535835 
	C200.797073,121.195961 209.789948,140.868210 203.578186,163.361984 
	C200.208069,175.565674 192.401749,184.309769 181.100784,191.631042 
	C188.212830,191.631042 194.356079,191.631042 201.016449,191.631042 
	C201.016449,200.227982 201.152466,208.343384 200.899246,216.446625 
	C200.849854,218.026779 199.487488,219.718185 198.394989,221.091141 
	C173.301605,252.626678 148.160187,284.124023 123.036804,315.635712 
	C122.219673,316.660583 121.497719,317.761383 120.319992,319.398743 
	C147.429123,319.398743 173.966507,319.398743 200.836166,319.398743 
	C200.836166,328.740387 200.836166,337.631683 200.836166,347.001801 
	C191.068817,347.001801 181.284409,347.001801 171.000000,347.001801 
z"/>
<path fill="#050505" opacity="1.000000" stroke="none" 
	d="
M151.100601,356.285797 
	C153.747223,356.352203 156.393845,356.418579 159.821411,356.552612 
	C161.101196,356.502502 161.600021,356.384766 162.098846,356.267029 
	C166.069550,356.342407 170.040253,356.417755 174.833557,356.564026 
	C176.470886,356.512207 177.285629,356.389526 178.100372,356.266846 
	C182.070343,356.340942 186.040298,356.415009 190.881805,356.561462 
	C194.535110,356.541290 197.316895,356.448761 200.098679,356.356201 
	C200.252792,356.477570 200.406891,356.598969 200.810242,357.315460 
	C201.147934,367.609711 201.236374,377.308868 201.324829,387.007996 
	C199.649734,387.398132 197.975021,388.127380 196.299500,388.129242 
	C143.788300,388.187408 91.277023,388.174713 38.200996,387.659546 
	C37.614719,386.480652 37.574333,385.815033 37.574345,385.149414 
	C37.576683,267.572357 37.580826,149.995316 37.598957,32.418266 
	C37.599190,30.927170 37.779488,29.436098 37.875740,27.945015 
	C47.944004,27.928911 58.012264,27.912806 68.597168,28.380489 
	C69.238121,30.604670 69.362427,32.345058 69.403610,34.541397 
	C69.176361,91.182137 69.029922,147.366928 68.900833,203.551743 
	C68.897430,205.035309 69.082664,206.519302 69.179932,208.003098 
	C69.083923,209.156311 68.904343,210.309494 68.903954,211.462738 
	C68.888084,258.219543 68.888359,304.976318 68.886597,351.733124 
	C68.886543,353.200195 68.886597,354.667267 68.886597,356.549072 
	C92.885086,356.549072 116.448334,356.549072 140.898346,356.549866 
	C144.890274,356.462341 147.995438,356.374054 151.100601,356.285797 
z"/>
<path fill="#D5D5D5" opacity="1.000000" stroke="none" 
	d="
M37.474220,28.009598 
	C37.779488,29.436098 37.599190,30.927170 37.598957,32.418266 
	C37.580826,149.995316 37.576683,267.572357 37.574345,385.149414 
	C37.574333,385.815033 37.614719,386.480652 37.722160,387.613892 
	C37.216034,386.239502 36.108891,384.398193 36.106407,382.555359 
	C36.017925,316.751648 36.033230,250.947754 36.033039,185.143906 
	C36.032890,134.666504 36.020180,84.189102 36.074474,33.711765 
	C36.076496,31.832216 36.725304,29.953362 37.474220,28.009598 
z"/>
<path fill="#FBFBFB" opacity="1.000000" stroke="none" 
	d="
M69.574661,207.993835 
	C69.082664,206.519302 68.897430,205.035309 68.900833,203.551743 
	C69.029922,147.366928 69.176361,91.182137 69.708008,34.547890 
	C70.693771,34.006924 71.292000,33.915409 71.890244,33.823895 
	C71.927162,44.306797 71.902870,54.790337 72.012779,65.272476 
	C72.311623,93.774994 72.781693,122.276291 72.938660,150.779419 
	C72.993996,160.827362 72.122391,170.878281 72.078766,180.929581 
	C72.046455,188.373734 72.851151,195.820709 72.852516,203.266495 
	C72.852806,204.839020 70.979439,206.411865 69.574661,207.993835 
z"/>
<path fill="#FAFAFA" opacity="1.000000" stroke="none" 
	d="
M201.695084,387.019379 
	C201.236374,377.308868 201.147934,367.609711 201.076691,357.440247 
	C202.087555,356.926086 203.149719,357.095306 204.063080,356.801666 
	C208.153854,355.486511 209.060501,357.567963 209.021973,361.079254 
	C208.947220,367.892334 209.009094,374.706818 208.997986,381.520721 
	C208.987427,387.999847 208.281586,388.553345 201.695084,387.019379 
z"/>
<path fill="#D5D5D5" opacity="1.000000" stroke="none" 
	d="
M150.913635,355.979553 
	C147.995438,356.374054 144.890274,356.462341 141.339417,356.407928 
	C144.171356,356.067932 147.449020,355.870636 150.913635,355.979553 
z"/>
<path fill="#D5D5D5" opacity="1.000000" stroke="none" 
	d="
M199.928955,356.041992 
	C197.316895,356.448761 194.535110,356.541290 191.324310,356.449707 
	C193.849930,356.086334 196.804581,355.907043 199.928955,356.041992 
z"/>
<path fill="#D5D5D5" opacity="1.000000" stroke="none" 
	d="
M71.844193,33.474098 
	C71.292000,33.915409 70.693771,34.006924 69.791138,34.091942 
	C69.362427,32.345058 69.238121,30.604670 69.064697,28.428467 
	C69.943108,29.703199 70.870636,31.413750 71.844193,33.474098 
z"/>
<path fill="#D5D5D5" opacity="1.000000" stroke="none" 
	d="
M178.004517,356.016754 
	C177.285629,356.389526 176.470886,356.512207 175.276031,356.451782 
	C175.900177,356.101349 176.904419,355.933990 178.004517,356.016754 
z"/>
<path fill="#D5D5D5" opacity="1.000000" stroke="none" 
	d="
M162.036255,356.046448 
	C161.600021,356.384766 161.101196,356.502502 160.249725,356.441956 
	C160.589264,356.117767 161.281479,355.971832 162.036255,356.046448 
z"/>
</svg>