<?xml version="1.0" standalone="no"?>
<!DOCTYPE svg PUBLIC "-//W3C//DTD SVG 20010904//EN"
 "http://www.w3.org/TR/2001/REC-SVG-20010904/DTD/svg10.dtd">
<svg version="1.0" xmlns="http://www.w3.org/2000/svg"
 width="240.000000pt" height="400.000000pt" viewBox="0 0 240.000000 400.000000"
 preserveAspectRatio="xMidYMid meet">
 
<g transform="translate(0.000000,400.000000) scale(0.100000,-0.100000)"
fill="" stroke="none">
 
<path d="M367 3723 c-4 -3 -7 -813 -7 -1800 l0 -1793 820 0 820 0 0 155 0 155
-257 1 c-142 1 -439 0 -660 -1 l-403 -2 0 1646 0 1646 -153 0 c-85 0 -157 -3
-160 -7z"/>
<path d="M1262 3639 c-176 -23 -304 -92 -385 -210 -56 -82 -78 -155 -78 -263
0 -140 26 -213 104 -291 81 -81 158 -112 429 -176 246 -58 312 -81 355 -124
38 -38 48 -70 38 -131 -8 -56 -53 -110 -113 -136 -98 -44 -302 -40 -399 7 -66
33 -96 72 -119 153 l-17 62 -155 0 -155 0 6 -57 c15 -141 79 -256 184 -332
l63 -46 -105 -3 -105 -3 0 -134 0 -135 390 0 c215 0 390 -2 390 -5 0 -2 -180
-230 -400 -506 l-400 -502 0 -134 0 -133 605 0 605 0 0 135 0 135 -405 2 -406
3 406 508 405 508 0 130 0 129 -101 0 -101 0 59 44 c65 49 111 107 151 193 25
53 27 68 27 178 0 116 -1 123 -32 186 -71 143 -161 192 -517 279 -135 33 -265
69 -289 79 -65 28 -97 71 -97 133 0 115 75 178 233 194 170 17 321 -69 341
-196 l6 -40 155 0 155 0 0 24 c0 46 -21 131 -45 185 -99 214 -372 331 -683
290z"/>
</g>
</svg>
