<?xml version="1.0" encoding="UTF-8"?>
<!-- Generator: Blender, SVG Export for Grease Pencil - v1.0 -->
<!DOCTYPE svg PUBLIC "-//W3C//DTD SVG 1.1//EN" "http://www.w3.org/Graphics/SVG/1.1/DTD/svg11.dtd">
<svg version="1.0" x="0px" y="0px" xmlns="http://www.w3.org/2000/svg" width="953px" height="953px" viewBox="0 0 953 953">
	<g id="blender_frame_1">
		<g id="blender_object_GPencil.004">
			<!--Layer: Circle_Fills-->
			<g id="Circle_Fills">
				<polygon fill="#D9D9D9" stroke="none" fill-opacity="1" points="385.524475,18.964355 298.004395,45.513428 217.345337,88.626465 146.647156,146.647034 88.626587,217.345276 45.513428,298.004333 18.964539,385.524414 10.000000,476.542358 18.964539,567.560303 45.513428,655.080505 88.626587,735.739502 146.647156,806.437744 217.345337,864.458252 298.004395,907.571411 385.524475,934.120361 476.542419,943.084839 567.560364,934.120361 655.080505,907.571411 735.739563,864.458252 806.437805,806.437744 864.458313,735.739502 907.571472,655.080505 934.120300,567.560303 943.085022,476.542358 934.120300,385.524414 907.571472,298.004333 864.458313,217.345276 806.437805,146.647034 735.739563,88.626465 655.080505,45.513428 567.560364,18.964355 476.542419,10.000000" />
			</g>
			<!--Layer: Circle_Lines-->
			<g id="Circle_Lines">
				<polyline stroke="#000000" stroke-opacity="1" fill="none" stroke-linecap="round" stroke-width="72" points="385.524475,18.964355 476.542419,10.000000 567.560364,18.964355 655.080505,45.513428 735.739563,88.626465 806.437805,146.647034 864.458313,217.345276 907.571472,298.004333 934.120300,385.524414 943.085022,476.542358 934.120300,567.560303 907.571472,655.080505 864.458313,735.739502 806.437805,806.437744 735.739563,864.458252 655.080505,907.571411 567.560364,934.120361 476.542419,943.084839 385.524475,934.120361 298.004395,907.571411 217.345337,864.458252 146.647156,806.437744 88.626587,735.739502 45.513428,655.080505 18.964539,567.560303 10.000000,476.542358 18.964539,385.524414 45.513428,298.004333 88.626587,217.345276 146.647156,146.647034 217.345337,88.626465 298.004395,45.513428 385.524475,18.964355" />
			</g>
		</g>
	</g>
	<g id="blender_frame_1">
		<g id="blender_object_GPencil.003">
			<!--Layer: Circle_001_Fills-->
			<g id="Circle_001_Fills">
				<polygon fill="#000000" stroke="none" fill-opacity="1" points="395.311096,68.165039 476.542419,50.888062 557.773743,68.165039 557.773743,476.542358 609.127869,476.542358 609.127869,81.015015 680.906799,112.678223 739.763733,156.511475 739.590881,476.542358 770.966003,476.542297 770.966003,182.118713 861.225525,317.201477 884.919739,395.311096 892.920349,476.542358 884.919739,557.773682 872.116760,624.866150 773.254089,772.706055 772.947815,635.246155 739.511292,635.883362 739.417786,796.857056 680.728210,840.550720 609.127869,872.069702 609.127869,635.883362 557.773743,635.883423 557.773743,884.919800 476.542419,902.196655 395.311096,884.919800 395.311096,635.883423 343.956970,635.883362 343.956970,872.069702 272.353821,840.550720 213.667053,796.857056 213.667053,635.883362 182.118713,635.883362 182.118713,770.966064 91.859375,635.883362 68.165161,557.773682 60.164490,476.542358 68.165161,395.311096 91.859375,317.201477 182.118713,182.118713 182.118713,476.542297 213.667053,476.542297 213.667053,156.227722 272.353821,112.531738 343.956970,81.015015 343.956970,476.542358 395.311096,476.542358" />
			</g>
		</g>
	</g>
</svg>
